# xmcd
#
# Track frame offsets: 
#        150
#        17587
#        35549
#        53067
#        65650
#        87549
#        99814
#        114524
#        125388
#        137039
#        148374
#        178446
#        195527
#        209323
#        232336
#        246806
#        264130
#        277848
#        290663
#        314634
#        331284
#
# Disc length: 4745 seconds
#
# Revision: 0
# Processed by: cddbd v1.5.2PL0 Copyright (c) Steve Scherf et al.
# Submitted via: ExactAudioCopy v0.95b4
#
DISCID=44128715
DTITLE=Alvin Lee - Pump Iron! and Rx5
DYEAR=1900
DGENRE=Rock and Roll
TTITLE0=One More Chance
TTITLE1=Try To Be Righteous
TTITLE2=You Told Me
TTITLE3=Have Mercy
TTITLE4=Julian Rice
TTITLE5=Time And Space
TTITLE6=Burnt Fungus
TTITLE7=The Darkest Night
TTITLE8=Its All Right Now
TTITLE9=Truckin' Down The Other Way
TTITLE10=Let The Sea Burn Down
TTITLE11=Hang On
TTITLE12=Lady Luck
TTITLE13=Can't Stop
TTITLE14=Wrong Side Of The Law
TTITLE15=Nutbush City Limits
TTITLE16=Rock'N'Roll Guitar Picker
TTITLE17=Double Loser
TTITLE18=Fool No More
TTITLE19=Dangerous World
TTITLE20=High Times
EXTD=
EXTT0=
EXTT1=
EXTT2=
EXTT3=
EXTT4=
EXTT5=
EXTT6=
EXTT7=
EXTT8=
EXTT9=
EXTT10=
EXTT11=
EXTT12=
EXTT13=
EXTT14=
EXTT15=
EXTT16=
EXTT17=
EXTT18=
EXTT19=
EXTT20=
PLAYORDER=
